<svg width="40" height="40" viewBox="0 0 40 40" fill="none" xmlns="http://www.w3.org/2000/svg">
<g id="fluent:design-ideas-16-regular">
<path id="Vector" d="M17.5 27.4324C16.6333 27.3362 15.7809 27.1391 14.96 26.8449C14.985 26.2549 15 25.6399 15 24.9999V24.1574C15.775 24.5274 16.6175 24.7849 17.5 24.9124V18.7499C17.5 17.7553 17.8951 16.8015 18.5983 16.0982C19.3016 15.395 20.2554 14.9999 21.25 14.9999H27.4125C27.2131 13.6146 26.6844 12.2974 25.8706 11.1587C25.0568 10.02 23.9818 9.09319 22.7357 8.45595C21.4897 7.81871 20.1089 7.48967 18.7094 7.49644C17.3098 7.50322 15.9323 7.84561 14.6925 8.49488C14.4947 7.67722 14.1691 6.89592 13.7275 6.17988C15.3482 5.37095 17.1402 4.96531 18.9513 4.99744C20.7623 5.02957 22.5388 5.49853 24.1298 6.36445C25.7208 7.23037 27.0791 8.46765 28.0894 9.97109C29.0996 11.4745 29.7319 13.1997 29.9325 14.9999H33.75C34.7446 14.9999 35.6984 15.395 36.4016 16.0982C37.1049 16.8015 37.5 17.7553 37.5 18.7499V31.2499C37.5 32.2444 37.1049 33.1983 36.4016 33.9015C35.6984 34.6048 34.7446 34.9999 33.75 34.9999H21.25C20.2554 34.9999 19.3016 34.6048 18.5983 33.9015C17.8951 33.1983 17.5 32.2444 17.5 31.2499V27.4324ZM29.9325 17.4999C29.6484 20.0364 28.5107 22.401 26.7059 24.2058C24.9011 26.0106 22.5365 27.1483 20 27.4324V31.2499C20 31.5814 20.1317 31.8993 20.3661 32.1338C20.6005 32.3682 20.9185 32.4999 21.25 32.4999H33.75C34.0815 32.4999 34.3995 32.3682 34.6339 32.1338C34.8683 31.8993 35 31.5814 35 31.2499V18.7499C35 18.4184 34.8683 18.1004 34.6339 17.866C34.3995 17.6316 34.0815 17.4999 33.75 17.4999H29.9325ZM27.4125 17.4999H21.25C20.9185 17.4999 20.6005 17.6316 20.3661 17.866C20.1317 18.1004 20 18.4184 20 18.7499V24.9124C21.8699 24.6421 23.6023 23.7741 24.9383 22.4382C26.2743 21.1022 27.1422 19.3698 27.4125 17.4999ZM11.9875 18.9024C11.725 17.9374 11.3 16.9699 10.57 16.2274C11.75 15.1099 12.5 13.3299 12.5 11.2499C12.5 9.50738 12.1475 8.30988 11.51 7.35238C11.2271 6.94057 10.9002 6.56082 10.535 6.21988C10.395 6.08475 10.2534 5.95141 10.11 5.81988C9.9575 5.67738 9.8175 5.54738 9.635 5.36488C9.26 4.98988 9.2175 4.68988 9.2175 4.53238C9.21791 4.44484 9.23226 4.35792 9.26 4.27488C9.3743 4.0277 9.40475 3.74995 9.34672 3.48387C9.28868 3.21779 9.14534 2.97795 8.93849 2.80081C8.73164 2.62367 8.4726 2.51893 8.20076 2.50252C7.92892 2.4861 7.65916 2.55892 7.4325 2.70988L7.4275 2.71238L7.42 2.71738L7.3975 2.73238L7.3225 2.78238C6.9475 3.04986 6.58621 3.33606 6.24 3.63988C5.615 4.19238 4.8 5.00988 4.2225 5.98488C3.71838 6.79321 3.31378 7.65949 3.0175 8.56488C2.7175 9.46238 2.5 10.4349 2.5 11.2499C2.5 13.3299 3.25 15.1074 4.43 16.2299C3.7 16.9699 3.275 17.9374 3.0125 18.9049C2.5 20.7849 2.5 23.1099 2.5 24.9074V24.9999C2.5 30.1449 3.4625 33.1999 4.5525 35.0174C5.1 35.9274 5.67 36.5149 6.1475 36.8849C6.40193 37.0833 6.67884 37.2512 6.9725 37.3849C7.14233 37.4469 7.31978 37.4856 7.5 37.4999C7.71 37.4999 8.0275 37.3849 8.0275 37.3849C8.32116 37.2512 8.59807 37.0833 8.8525 36.8849C9.3275 36.5149 9.9025 35.9274 10.4475 35.0174C11.5375 33.2024 12.5 30.1449 12.5 24.9999V24.9099C12.5 23.1099 12.5 20.7874 11.9875 18.9024ZM6.2175 17.9774C6.5 17.6924 6.8775 17.4999 7.5 17.4999C8.125 17.4999 8.5 17.6949 8.7825 17.9749C9.0975 18.2924 9.37 18.8074 9.575 19.5599C9.99 21.0874 10 23.0924 10 24.9999C10 29.8549 9.0875 32.4249 8.3025 33.7324C8.0025 34.2324 7.72 34.5549 7.5 34.7574C7.18566 34.4551 6.9155 34.1101 6.6975 33.7324C5.9125 32.4224 5 29.8549 5 24.9999C5 23.0924 5.01 21.0874 5.425 19.5599C5.63 18.8099 5.9025 18.2949 6.2175 17.9774ZM7.5 14.9999C6.5375 14.9999 5 13.9299 5 11.2499C5 10.8174 5.13 10.1324 5.39 9.35738C5.62693 8.62572 5.95359 7.92623 6.3625 7.27488C6.58 6.90738 6.8625 6.54988 7.1675 6.22238C7.34 6.52738 7.5675 6.83488 7.8675 7.13488C8.05 7.31738 8.2875 7.53738 8.49 7.72738L8.8 8.01738C9.0625 8.27238 9.265 8.49488 9.4275 8.74238C9.7275 9.18988 10 9.86738 10 11.2499C10 13.9299 8.4625 14.9999 7.5 14.9999Z" fill="#3D3D3D"/>
</g>
</svg>
