<svg width="40" height="40" viewBox="0 0 40 40" fill="none" xmlns="http://www.w3.org/2000/svg">
<g id="ic:sharp-broadcast-on-home">
<path id="Vector" d="M36.6668 16.2667V6.66675H6.66683V10.0001H33.3335V14.3167C34.5502 14.8001 35.6668 15.4667 36.6668 16.2667ZM15.0002 15.0001H3.3335V33.3334H15.0002V15.0001ZM11.6668 30.0001H6.66683V18.3334H11.6668V30.0001ZM29.5835 28.2834C30.0835 27.9001 30.4168 27.3334 30.4168 26.6667C30.4168 26.1142 30.1973 25.5843 29.8066 25.1936C29.4159 24.8029 28.886 24.5834 28.3335 24.5834C27.781 24.5834 27.2511 24.8029 26.8604 25.1936C26.4697 25.5843 26.2502 26.1142 26.2502 26.6667C26.2502 27.3334 26.5835 27.9167 27.0835 28.2834V36.6667H29.5835V28.2834Z" fill="#3D3D3D"/>
<path id="Vector_2" d="M28.3332 22.5C29.4382 22.5 30.498 22.939 31.2794 23.7204C32.0609 24.5018 32.4998 25.5616 32.4998 26.6667C32.4998 27.8167 32.0332 28.85 31.2832 29.6L33.0498 31.3667C34.2498 30.1667 34.9998 28.5 34.9998 26.6667C34.9998 22.9833 32.0165 20 28.3332 20C24.6498 20 21.6665 22.9833 21.6665 26.6667C21.6665 28.5 22.4165 30.1667 23.6165 31.3833L25.3832 29.6167C24.7989 29.0339 24.4009 28.2908 24.2395 27.4816C24.0781 26.6724 24.1607 25.8334 24.4766 25.0711C24.7926 24.3089 25.3278 23.6576 26.0144 23.1998C26.701 22.7421 27.508 22.4985 28.3332 22.5Z" fill="#3D3D3D"/>
<path id="Vector_3" d="M28.3333 15.8333C25.4602 15.8333 22.7047 16.9746 20.673 19.0063C18.6414 21.0379 17.5 23.7934 17.5 26.6666C17.5 29.6499 18.7167 32.3666 20.6667 34.3333L22.4333 32.5666C20.9333 31.0499 20 28.9666 20 26.6666C20 22.0666 23.7333 18.3333 28.3333 18.3333C32.9333 18.3333 36.6667 22.0666 36.6667 26.6666C36.6667 28.9499 35.7333 31.0333 34.2333 32.5333L36.0167 34.2999C37.5239 32.7821 38.548 30.852 38.96 28.753C39.3719 26.654 39.1533 24.48 38.3316 22.505C37.5099 20.5301 36.1219 18.8426 34.3426 17.6553C32.5633 16.468 30.4724 15.834 28.3333 15.8333Z" fill="#3D3D3D"/>
</g>
</svg>
