<svg width="40" height="40" viewBox="0 0 40 40" fill="none" xmlns="http://www.w3.org/2000/svg">
<g id="material-symbols:nest-doorbell-visitor-outline-rounded">
<path id="Vector" d="M29.9998 29.9999C29.0832 29.9999 28.2982 29.6733 27.6448 29.0199C26.9915 28.3666 26.6654 27.5821 26.6665 26.6666C26.6665 25.7499 26.9932 24.9649 27.6465 24.3116C28.2998 23.6583 29.0843 23.3321 29.9998 23.3333C30.9165 23.3333 31.7015 23.6599 32.3548 24.3133C33.0082 24.9666 33.3343 25.751 33.3332 26.6666C33.3332 27.5833 33.0065 28.3683 32.3532 29.0216C31.6998 29.6749 30.9154 30.001 29.9998 29.9999ZM23.3332 36.6666V35.7082C23.3332 34.486 23.9443 33.5066 25.1665 32.7699C26.3887 32.0333 27.9998 31.6655 29.9998 31.6666C31.9998 31.6666 33.6109 32.0349 34.8332 32.7716C36.0554 33.5083 36.6665 34.4871 36.6665 35.7082V36.6666H23.3332ZM19.9998 16.6666C20.9165 16.6666 21.7015 16.3399 22.3548 15.6866C23.0082 15.0333 23.3343 14.2488 23.3332 13.3333C23.3332 12.4166 23.0065 11.6316 22.3532 10.9783C21.6998 10.3249 20.9154 9.99881 19.9998 9.99992C19.0832 9.99992 18.2982 10.3266 17.6448 10.9799C16.9915 11.6333 16.6654 12.4177 16.6665 13.3333C16.6665 14.2499 16.9932 15.0349 17.6465 15.6883C18.2998 16.3416 19.0843 16.6677 19.9998 16.6666ZM16.6665 26.6666C16.6665 27.5833 16.9932 28.3683 17.6465 29.0216C18.2998 29.6749 19.0843 30.001 19.9998 29.9999C20.9165 29.9999 21.7015 29.6733 22.3548 29.0199C23.0082 28.3666 23.3343 27.5821 23.3332 26.6666C23.3332 25.7499 23.0065 24.9649 22.3532 24.3116C21.6998 23.6583 20.9154 23.3321 19.9998 23.3333C19.0832 23.3333 18.2982 23.6599 17.6448 24.3133C16.9915 24.9666 16.6654 25.751 16.6665 26.6666ZM19.9998 28.3333C19.5276 28.3333 19.1315 28.1733 18.8115 27.8533C18.4915 27.5333 18.3321 27.1377 18.3332 26.6666C18.3332 26.1944 18.4932 25.7983 18.8132 25.4783C19.1332 25.1583 19.5287 24.9988 19.9998 24.9999C20.4721 24.9999 20.8682 25.1599 21.1882 25.4799C21.5082 25.7999 21.6676 26.1955 21.6665 26.6666C21.6665 27.1388 21.5065 27.5349 21.1865 27.8549C20.8665 28.1749 20.4709 28.3344 19.9998 28.3333ZM11.6665 11.6666C11.6665 9.30547 12.4654 7.32603 14.0632 5.72825C15.6609 4.13048 17.6398 3.33214 19.9998 3.33325C22.3609 3.33325 24.3404 4.13214 25.9382 5.72992C27.5359 7.3277 28.3343 9.30659 28.3332 11.6666V18.3333C28.3332 18.8055 28.1732 19.2016 27.8532 19.5216C27.5332 19.8416 27.1376 20.001 26.6665 19.9999C26.1943 19.9999 25.7982 19.8399 25.4782 19.5199C25.1582 19.1999 24.9987 18.8044 24.9998 18.3333V11.6666C24.9998 10.2499 24.4998 9.06214 23.4998 8.10325C22.4998 7.14436 21.3332 6.66548 19.9998 6.66659C18.6665 6.66659 17.4998 7.14603 16.4998 8.10492C15.4998 9.06381 14.9998 10.251 14.9998 11.6666V28.3333C14.9998 29.4999 15.3748 30.5416 16.1248 31.4583C16.8748 32.3749 17.7915 32.9583 18.8748 33.2083C19.2637 33.2916 19.5904 33.486 19.8548 33.7916C20.1193 34.0971 20.2509 34.4444 20.2498 34.8333C20.2498 35.3888 20.0415 35.8333 19.6248 36.1666C19.2082 36.4999 18.7221 36.5971 18.1665 36.4583C16.2776 36.0416 14.7221 35.0905 13.4998 33.6049C12.2776 32.1194 11.6665 30.3621 11.6665 28.3333V11.6666Z" fill="#3D3D3D"/>
</g>
</svg>
