<svg width="40" height="40" viewBox="0 0 40 40" fill="none" xmlns="http://www.w3.org/2000/svg">
<g id="pepicons-pop:leave">
<g id="Group">
<path id="Vector" fill-rule="evenodd" clip-rule="evenodd" d="M30.0542 14.4639C30.4616 14.1246 30.9871 13.9609 31.5152 14.009C32.0432 14.057 32.5306 14.3127 32.8702 14.7199L37.0362 19.7199C37.3607 20.1289 37.5124 20.6486 37.4589 21.168C37.4054 21.6874 37.1509 22.1652 36.7498 22.4995C36.3487 22.8337 35.8328 22.9979 35.3123 22.9569C34.7918 22.9158 34.3079 22.6729 33.9642 22.2799L29.7982 17.2799C29.4588 16.8725 29.2952 16.347 29.3432 15.8189C29.3912 15.2909 29.6469 14.8035 30.0542 14.4639Z" fill="#3D3D3D"/>
<path id="Vector_2" fill-rule="evenodd" clip-rule="evenodd" d="M30.0539 27.536C29.6463 27.1967 29.3902 26.7095 29.3418 26.1814C29.2935 25.6534 29.4568 25.1277 29.7959 24.72L33.9639 19.72C34.1296 19.5111 34.3355 19.3374 34.5694 19.2093C34.8032 19.0811 35.0604 19.001 35.3256 18.9737C35.5909 18.9463 35.859 18.9723 36.1141 19.0501C36.3692 19.1279 36.6061 19.256 36.811 19.4267C37.0158 19.5974 37.1845 19.8074 37.307 20.0443C37.4295 20.2811 37.5035 20.5401 37.5244 20.806C37.5454 21.0718 37.5129 21.3392 37.429 21.5923C37.3451 21.8455 37.2115 22.0793 37.0359 22.28L32.8699 27.28C32.5303 27.6872 32.0429 27.943 31.5149 27.991C30.9868 28.039 30.4613 27.8753 30.0539 27.536Z" fill="#3D3D3D"/>
<path id="Vector_3" fill-rule="evenodd" clip-rule="evenodd" d="M35 21C35 21.5304 34.7893 22.0391 34.4142 22.4142C34.0391 22.7893 33.5304 23 33 23H20C19.4696 23 18.9609 22.7893 18.5858 22.4142C18.2107 22.0391 18 21.5304 18 21C18 20.4696 18.2107 19.9609 18.5858 19.5858C18.9609 19.2107 19.4696 19 20 19H33C33.5304 19 34.0391 19.2107 34.4142 19.5858C34.7893 19.9609 35 20.4696 35 21ZM6 7C6 6.46957 6.21071 5.96086 6.58579 5.58579C6.96086 5.21071 7.46957 5 8 5H26C26.5304 5 27.0391 5.21071 27.4142 5.58579C27.7893 5.96086 28 6.46957 28 7C28 7.53043 27.7893 8.03914 27.4142 8.41421C27.0391 8.78929 26.5304 9 26 9H8C7.46957 9 6.96086 8.78929 6.58579 8.41421C6.21071 8.03914 6 7.53043 6 7ZM6 35C6 34.4696 6.21071 33.9609 6.58579 33.5858C6.96086 33.2107 7.46957 33 8 33H26C26.5304 33 27.0391 33.2107 27.4142 33.5858C27.7893 33.9609 28 34.4696 28 35C28 35.5304 27.7893 36.0391 27.4142 36.4142C27.0391 36.7893 26.5304 37 26 37H8C7.46957 37 6.96086 36.7893 6.58579 36.4142C6.21071 36.0391 6 35.5304 6 35Z" fill="#3D3D3D"/>
<path id="Vector_4" fill-rule="evenodd" clip-rule="evenodd" d="M26 5C26.5304 5 27.0391 5.21071 27.4142 5.58579C27.7893 5.96086 28 6.46957 28 7V15C28 15.5304 27.7893 16.0391 27.4142 16.4142C27.0391 16.7893 26.5304 17 26 17C25.4696 17 24.9609 16.7893 24.5858 16.4142C24.2107 16.0391 24 15.5304 24 15V7C24 6.46957 24.2107 5.96086 24.5858 5.58579C24.9609 5.21071 25.4696 5 26 5ZM26 25C26.5304 25 27.0391 25.2107 27.4142 25.5858C27.7893 25.9609 28 26.4696 28 27V35C28 35.5304 27.7893 36.0391 27.4142 36.4142C27.0391 36.7893 26.5304 37 26 37C25.4696 37 24.9609 36.7893 24.5858 36.4142C24.2107 36.0391 24 35.5304 24 35V27C24 26.4696 24.2107 25.9609 24.5858 25.5858C24.9609 25.2107 25.4696 25 26 25ZM8 5C8.53043 5 9.03914 5.21071 9.41421 5.58579C9.78929 5.96086 10 6.46957 10 7V35C10 35.5304 9.78929 36.0391 9.41421 36.4142C9.03914 36.7893 8.53043 37 8 37C7.46957 37 6.96086 36.7893 6.58579 36.4142C6.21071 36.0391 6 35.5304 6 35V7C6 6.46957 6.21071 5.96086 6.58579 5.58579C6.96086 5.21071 7.46957 5 8 5Z" fill="#3D3D3D"/>
</g>
</g>
</svg>
