<svg width="20" height="20" viewBox="0 0 20 20" fill="none" xmlns="http://www.w3.org/2000/svg">
<g id="tabler:edit">
<g id="Group">
<path id="Vector" d="M5.5 6.3335H4.66667C4.22464 6.3335 3.80072 6.50909 3.48816 6.82165C3.17559 7.13421 3 7.55814 3 8.00016V15.5002C3 15.9422 3.17559 16.3661 3.48816 16.6787C3.80072 16.9912 4.22464 17.1668 4.66667 17.1668H12.1667C12.6087 17.1668 13.0326 16.9912 13.3452 16.6787C13.6577 16.3661 13.8333 15.9422 13.8333 15.5002V14.6668" stroke="white" stroke-width="2" stroke-linecap="round" stroke-linejoin="round"/>
<path id="Vector_2" d="M12.9998 4.66676L15.4998 7.16676M16.654 5.98759C16.9822 5.65938 17.1666 5.21424 17.1666 4.75009C17.1666 4.28594 16.9822 3.84079 16.654 3.51259C16.3258 3.18438 15.8807 3 15.4165 3C14.9524 3 14.5072 3.18438 14.179 3.51259L7.1665 10.5001V13.0001H9.6665L16.654 5.98759Z" stroke="white" stroke-width="2" stroke-linecap="round" stroke-linejoin="round"/>
</g>
</g>
</svg>
